<?xml version="1.0" ?><svg enable-background="new 0 0 24 24" id="Layer_1" version="1.1" viewBox="0 0 24 24" xml:space="preserve" xmlns="http://www.w3.org/2000/svg" xmlns:xlink="http://www.w3.org/1999/xlink"><g><path d="M12,0C5.3828125,0,0,5.3828125,0,12s5.3828125,12,12,12s12-5.3828125,12-12S18.6171875,0,12,0z" fill="#303C42"/><path d="M12,23C5.9345703,23,1,18.0654297,1,12S5.9345703,1,12,1s11,4.9345703,11,11S18.0654297,23,12,23z" fill="#FED600"/><path d="M19.2507324,3.7492676C20.9562378,5.687561,22,8.2213745,22,11   c0,6.0654297-4.9345703,11-11,11c-2.7786255,0-5.312439-1.0437622-7.2507324-2.7492676C5.7666626,21.543457,8.7131958,23,12,23   c6.0654297,0,11-4.9345703,11-11C23,8.7131958,21.543457,5.7666626,19.2507324,3.7492676z" fill="#010101" opacity="0.1"/><path d="M6.3427734,5.6357422c-0.1953125-0.1953125-0.5117188-0.1953125-0.7070313,0   c-3.5097656,3.5087891-3.5097656,9.2197266,0,12.7285156C7.390625,20.1191406,9.6953125,20.9960938,12,20.9960938   s4.609375-0.8769531,6.3642578-2.6318359c0.1953125-0.1953125,0.1953125-0.5117188,0-0.7070313L6.3427734,5.6357422z" fill="#303C42"/><path d="M12,20c-2.1367188,0-4.1464844-0.8320313-5.6572266-2.3427734S4,14.1367188,4,12   c0-1.9697266,0.7060547-3.8300781,2-5.2929688L17.2929688,18C15.8300781,19.2939453,13.9697266,20,12,20z" fill="#B72025"/><path d="M5.1035156,13.1035156c0-1.9697266,0.7060547-3.8300781,2-5.2929688L6,6.7070313   C4.7060547,8.1699219,4,10.0302734,4,12c0,2.1367188,0.8320313,4.1464844,2.3427734,5.6572266   c0.1854858,0.1854858,0.3787842,0.3601685,0.5786133,0.5249023C5.7443237,16.7543335,5.1035156,14.9779053,5.1035156,13.1035156z" fill="#010101" opacity="0.1"/><path d="M10.3535156,5.0917969c0.7636719-0.7636719,2.0917969-0.7636719,2.8554688,0   c0.7871094,0.7871094,0.7871094,2.0673828,0,2.8544922c-0.1953125,0.1953125-0.1953125,0.5117188,0,0.7070313   c0.0976563,0.0976563,0.2255859,0.1464844,0.3535032,0.1464844c0.1279421,0,0.2558718-0.0488281,0.353528-0.1464844   c0.5703125-0.5703125,0.8837891-1.328125,0.8837891-2.1337891c0-0.8066406-0.3134766-1.5644531-0.8837891-2.1347656   c-1.140625-1.140625-3.1289063-1.140625-4.2695313,0c-0.1953125,0.1953125-0.1953125,0.5117188,0,0.7070313   S10.1582031,5.2871094,10.3535156,5.0917969z" fill="#303C42"/><path d="M19.6152344,10.0839844c-1.1396484-1.1396484-3.1269531-1.1416016-4.2685547,0   c-0.1953125,0.1953125-0.1953125,0.5117188,0,0.7070313s0.5117188,0.1953125,0.7070313,0   c0.7880859-0.7871094,2.0683594-0.7861328,2.8544922,0C19.2900391,11.1728516,19.5,11.6796875,19.5,12.21875   s-0.2099609,1.0458984-0.5917969,1.4277344c-0.1953125,0.1953125-0.1953125,0.5117188,0,0.7070313   C19.0058594,14.4511719,19.1337891,14.5,19.2617188,14.5s0.2558594-0.0488281,0.3535156-0.1464844   C20.1855469,13.7832031,20.5,13.0253906,20.5,12.21875S20.1855469,10.6542969,19.6152344,10.0839844z" fill="#303C42"/><linearGradient gradientUnits="userSpaceOnUse" id="SVGID_1_" x1="1.1247724" x2="22.875227" y1="6.9287982" y2="17.0712013"><stop offset="0" style="stop-color:#FFFFFF;stop-opacity:0.2"/><stop offset="1" style="stop-color:#FFFFFF;stop-opacity:0"/></linearGradient><path d="M12,0C5.3828125,0,0,5.3828125,0,12s5.3828125,12,12,12s12-5.3828125,12-12S18.6171875,0,12,0z" fill="url(#SVGID_1_)"/></g><g/><g/><g/><g/><g/><g/><g/><g/><g/><g/><g/><g/><g/><g/><g/></svg>