<?xml version="1.0" ?><svg enable-background="new 0 0 24 24" id="Layer_1" version="1.1" viewBox="0 0 24 24" xml:space="preserve" xmlns="http://www.w3.org/2000/svg" xmlns:xlink="http://www.w3.org/1999/xlink"><g><path d="M24,6c0-1.5126953-2.3427734-4.4794922-2.609375-4.8125   c-0.1914063-0.2373047-0.5898438-0.2373047-0.78125,0c-0.1108398,0.1384888-0.5814819,0.7349243-1.0925903,1.4902954   C17.3827515,0.9536743,14.7404785,0,12,0C5.3828125,0,0,5.3833008,0,12s5.3828125,12,12,12s12-5.3833008,12-12   c0-1.3826904-0.2518311-2.7463989-0.7278442-4.0635376C23.7195435,7.4123535,24,6.7415161,24,6z" fill="#303C42"/><path d="M12,23C5.9345703,23,1,18.0654297,1,12S5.9345703,1,12,1   c2.5475464,0,5.0029907,0.8990479,6.9742432,2.5235596C18.447876,4.399231,18,5.338623,18,6c0,1.6542969,1.3457031,3,3,3   c0.5270386,0,1.0153809-0.1484375,1.446228-0.3880615C22.8067017,9.7153931,23,10.8509521,23,12C23,18.0654297,18.0654297,23,12,23   z" fill="#FED600"/><path d="M11.9980469,13.9985352c-2.8349609,0-5.3720703,1.690918-6.4638672,4.3081055   c-0.0634766,0.1542969-0.046875,0.3305664,0.0458984,0.4697266s0.2490234,0.2226563,0.4160156,0.2226563L18.0009766,19   c0.1669922,0,0.3232422-0.0834961,0.4160156-0.2226563s0.109375-0.3154297,0.0458984-0.4697266   C17.3710938,15.6899414,14.8339844,13.9985352,11.9980469,13.9985352z" fill="#303C42"/><path d="M6.7998047,17.9990234c1.0615234-1.8447266,3.0283203-3.0004883,5.1982422-3.0004883   c2.1708984,0,4.1376953,1.15625,5.1992188,3.0014648L6.7998047,17.9990234z" fill="#B72025"/><path d="M12.848877,15.8493652c1.4157715,0,2.7393799,0.4984741,3.7870483,1.352417   c-1.119812-1.3703613-2.8026123-2.2032471-4.6378784-2.2032471c-2.1699219,0-4.1367188,1.1557617-5.1982422,3.0004883   l1.458374,0.0001221C9.3780518,16.6615601,11.0387573,15.8493652,12.848877,15.8493652z" fill="#010101" opacity="0.1"/><circle cx="8" cy="9" fill="#303C42" r="1"/><circle cx="16" cy="9" fill="#303C42" r="1"/><path d="M21,2.3173828C21.8955078,3.5131836,23,5.2382813,23,6c0,1.1030273-0.8974609,2-2,2s-2-0.8969727-2-2   C19,5.2387695,20.1044922,3.5136719,21,2.3173828z" fill="#38A4DD"/><path d="M21,7.1826172c-0.9431763,0-1.7315063-0.6584473-1.94104-1.5387573   C19.022522,5.7767334,19,5.8980713,19,6c0,1.1030273,0.8974609,2,2,2s2-0.8969727,2-2   c0-0.1019287-0.0224609-0.2233887-0.0588989-0.3562622C22.7315674,6.5241089,21.9432373,7.1826172,21,7.1826172z" fill="#010101" opacity="0.1"/><path d="M23,12c0-0.3509521-0.0258179-0.6954346-0.0580444-1.0378418   c-0.0171509-0.1705322-0.0380859-0.3406372-0.0634155-0.5102539c-0.017395-0.1228027-0.0404053-0.2436523-0.0618286-0.3651123   c-0.0916748-0.496521-0.211853-0.9891968-0.3704834-1.4748535c-0.2630615,0.1463013-0.5532837,0.2415771-0.8549194,0.3068848   C21.6917725,9.5147705,21.75,10.1252441,21.75,10.75c0,6.0751343-4.9248657,11-11,11   c-2.7084961,0-5.1829224-0.9847412-7.0996704-2.6081543c0.0484619,0.0565796,0.100647,0.1096191,0.1502075,0.1652222   c0.1776733,0.1992798,0.3587036,0.3955078,0.5501709,0.5813599c0.0945435,0.0917358,0.1945801,0.1774292,0.2923584,0.2657471   c0.1769409,0.1599731,0.3565063,0.3168945,0.5435791,0.46521c0.1153564,0.0913696,0.2345581,0.1777954,0.3535767,0.2645874   c0.1809082,0.1320801,0.3650513,0.2599487,0.5541382,0.3809814c0.1312866,0.0839844,0.2647705,0.1646729,0.3997803,0.2431641   c0.1880493,0.109436,0.3799438,0.2125854,0.5748901,0.3109131c0.1433105,0.0723267,0.2873535,0.1433105,0.4341431,0.2094116   c0.1982422,0.0893555,0.401123,0.1696777,0.6054077,0.2473755c0.1507568,0.057312,0.3008423,0.1159668,0.4546509,0.166748   c0.2143555,0.0707397,0.4337769,0.1292725,0.6537476,0.1869507c0.1504517,0.0394287,0.2990723,0.083313,0.4519653,0.1164551   c0.2474976,0.0536499,0.5006714,0.0910645,0.7540283,0.1276855c0.1312866,0.0189819,0.2599487,0.0458374,0.3927002,0.0601196   C11.2049561,22.9755859,11.5995483,23,12,23C18.0654297,23,23,18.0654297,23,12z" fill="#010101" opacity="0.1"/><linearGradient gradientUnits="userSpaceOnUse" id="SVGID_1_" x1="19.746048" x2="23.7535248" y1="7.4403534" y2="11.4478302"><stop offset="0" style="stop-color:#010101;stop-opacity:0.2"/><stop offset="1" style="stop-color:#010101;stop-opacity:0"/></linearGradient><path d="M21,9c-0.7796021,0-1.4842529-0.3061523-2.0182495-0.7953491l4.0075073,4.0074463   C22.9906006,12.1408081,23,12.0715942,23,12c0-1.1490479-0.1932983-2.2846069-0.553772-3.3880615   C22.0153809,8.8515625,21.5270386,9,21,9z" fill="url(#SVGID_1_)"/><linearGradient gradientUnits="userSpaceOnUse" id="SVGID_2_" x1="1.5084715" x2="23.2587643" y1="6.106164" y2="16.2484932"><stop offset="0" style="stop-color:#FFFFFF;stop-opacity:0.2"/><stop offset="1" style="stop-color:#FFFFFF;stop-opacity:0"/></linearGradient><path d="M24,6c0-1.5126953-2.3427734-4.4794922-2.609375-4.8125   c-0.1914063-0.2373047-0.5898438-0.2373047-0.78125,0c-0.1108398,0.1384888-0.5814819,0.7349243-1.0925903,1.4902954   C17.3827515,0.9536743,14.7404785,0,12,0C5.3828125,0,0,5.3833008,0,12s5.3828125,12,12,12s12-5.3833008,12-12   c0-1.3826904-0.2518311-2.7463989-0.7278442-4.0635376C23.7195435,7.4123535,24,6.7415161,24,6z" fill="url(#SVGID_2_)"/></g><g/><g/><g/><g/><g/><g/><g/><g/><g/><g/><g/><g/><g/><g/><g/></svg>