<?xml version="1.0" ?><!DOCTYPE svg  PUBLIC '-//W3C//DTD SVG 1.1//EN'  'http://www.w3.org/Graphics/SVG/1.1/DTD/svg11.dtd'><svg enable-background="new 0 0 48 48" height="48px" id="Layer_1" version="1.1" viewBox="0 0 48 48" width="48px" xml:space="preserve" xmlns="http://www.w3.org/2000/svg" xmlns:xlink="http://www.w3.org/1999/xlink"><g><g><path d="M36.313,40.009c-1.565,0-3.19-0.362-4.774-1.087c-3.305-1.512-5.143-5.718-4.275-9.784    c0.618-2.905,2.633-4.188,4.411-5.32c0.573-0.365,1.115-0.71,1.612-1.102c0.262-0.207,0.595-0.262,0.893-0.176    c2.719-1.035,5.676-0.621,7.928,1.115c2.417,1.862,3.639,4.87,3.27,8.042c-0.371,3.178-1.979,5.719-4.525,7.153    C39.48,39.622,37.93,40.009,36.313,40.009z M34.27,24.483c-0.499,0.372-1.018,0.702-1.521,1.022    c-1.655,1.054-3.085,1.965-3.53,4.05c-0.574,2.697,0.335,6.26,3.152,7.549c2.633,1.205,5.365,1.206,7.498,0.004    c1.977-1.112,3.227-3.115,3.521-5.641c0.287-2.47-0.648-4.797-2.504-6.228c-1.738-1.34-3.945-1.633-6.057-0.806    C34.646,24.506,34.451,24.52,34.27,24.483z"/></g><g><path d="M11.187,39.578c-0.063,0-0.125,0-0.188-0.002c-3.664-0.061-7.114-2.829-8.202-6.584c-0.878-3.031,0.711-6.418,4.05-8.63    c2.778-1.842,5.71-2.157,8.478-0.914c3.521,1.584,5.178,3.896,5.065,7.067c-0.003,0.085-0.017,0.166-0.039,0.244    c0.026,0.088,0.04,0.182,0.04,0.279c0,0.239,0.019,0.484,0.038,0.73c0.047,0.639,0.101,1.363-0.117,2.067    C19.271,37.186,15.452,39.578,11.187,39.578z M11.937,24.701c-1.318,0-2.65,0.443-3.984,1.328    c-2.555,1.691-3.854,4.267-3.234,6.406c0.85,2.933,3.506,5.096,6.314,5.141c3.474,0.066,6.571-1.764,7.368-4.332    c0.106-0.342,0.07-0.82,0.033-1.326c-0.022-0.295-0.043-0.591-0.043-0.879c0-0.098,0.014-0.191,0.04-0.279    c-0.029-0.1-0.043-0.205-0.039-0.314c0.083-2.331-1.115-3.926-3.886-5.173C13.657,24.892,12.8,24.701,11.937,24.701z"/></g><g><path d="M25.532,29.806c-0.249,0-0.498-0.093-0.692-0.278c-0.399-0.382-0.412-1.015-0.03-1.414l7.036-7.339    c-0.26-0.082-0.515-0.139-0.751-0.143c-3.147-0.063-6.354-0.053-9.457-0.044l-3.364,0.006c-0.552,0-1-0.448-1-1s0.448-1,1-1    l3.358-0.006c3.112-0.009,6.333-0.018,9.501,0.044c0.813,0.016,1.57,0.312,2.179,0.55c0.215,0.084,0.418,0.165,0.607,0.223    c0.332,0.102,0.588,0.368,0.676,0.704s-0.006,0.693-0.246,0.944l-8.096,8.446C26.058,29.703,25.795,29.806,25.532,29.806z"/></g><g><path d="M33.068,20.593c-0.529,0-0.973-0.417-0.998-0.953l-0.319-6.765l-2.576,0.533c-0.331,0.068-0.671-0.034-0.909-0.273    l-2.883-2.884c-0.39-0.391-0.39-1.024,0-1.415c0.391-0.39,1.024-0.39,1.414,0l2.502,2.503l3.193-0.66    c0.286-0.06,0.584,0.01,0.814,0.189c0.232,0.179,0.373,0.451,0.387,0.743l0.375,7.934c0.026,0.552-0.399,1.02-0.951,1.046    C33.102,20.592,33.085,20.593,33.068,20.593z"/></g><g><path d="M22.864,33.963c-0.054,0-0.109-0.004-0.163-0.014c-0.268-0.044-0.506-0.195-0.66-0.418l-1.519-2.203    c-0.016-0.023-0.03-0.045-0.043-0.068c-2.832,0.761-6.241,0.723-8.922-0.199c-0.29-0.1-0.518-0.326-0.618-0.616    c-0.101-0.289-0.064-0.608,0.101-0.866l3.322-5.218c0.297-0.465,0.917-0.601,1.381-0.306c0.466,0.297,0.603,0.915,0.306,1.381    l-2.595,4.075c3.068,0.647,6.604,0.081,8.562-0.977c0.746-0.403,1.586-0.388,2.331-0.375c0.258,0.005,0.511,0.011,0.748-0.009    c0.443-0.031,0.854,0.227,1.013,0.641c0.958,2.508-0.625,3.586-1.897,4.451c-0.239,0.162-0.491,0.334-0.747,0.523    C23.287,33.895,23.077,33.963,22.864,33.963z M22.424,30.563l0.691,1.003c0.955-0.651,1.307-0.938,1.291-1.406    c-0.032,0-0.064-0.001-0.097-0.002c-0.521-0.008-1.061-0.018-1.345,0.136C22.789,30.389,22.609,30.479,22.424,30.563z"/></g><g><path d="M22.463,30.085c-0.338,0-0.667-0.171-0.856-0.481l-4.747-7.817c-0.287-0.472-0.136-1.087,0.336-1.374    c0.473-0.285,1.087-0.135,1.374,0.336l4.747,7.818c0.287,0.472,0.136,1.087-0.336,1.373C22.819,30.038,22.64,30.085,22.463,30.085    z"/></g><g><path d="M36.14,32.039c-0.44,0-0.843-0.293-0.964-0.737l-2.513-9.212c-0.146-0.533,0.169-1.083,0.702-1.228    c0.531-0.146,1.082,0.168,1.228,0.702l2.513,9.212c0.145,0.533-0.17,1.082-0.702,1.229C36.315,32.027,36.227,32.039,36.14,32.039z    "/></g><g><path d="M15.481,24.78c-0.188,0-0.379-0.053-0.548-0.165c-0.461-0.303-0.59-0.923-0.286-1.385l2.281-3.468l-2.342-4.752    c-0.244-0.496-0.041-1.095,0.455-1.339c0.497-0.243,1.095-0.041,1.339,0.455l2.595,5.266c0.157,0.318,0.133,0.695-0.062,0.992    l-2.595,3.946C16.125,24.622,15.806,24.78,15.481,24.78z"/></g><g><path d="M19.67,15.009c-0.01,0-0.021,0-0.032,0l-8.934-0.278c-0.552-0.017-0.985-0.479-0.968-1.031    c0.018-0.552,0.491-0.996,1.031-0.968l8.934,0.278c0.552,0.017,0.985,0.479,0.968,1.031C20.652,14.582,20.208,15.009,19.67,15.009    z"/></g></g></svg>