<?xml version="1.0" standalone="no"?>
<!DOCTYPE svg PUBLIC "-//W3C//DTD SVG 20010904//EN"
 "http://www.w3.org/TR/2001/REC-SVG-20010904/DTD/svg10.dtd">
<svg version="1.0" xmlns="http://www.w3.org/2000/svg"
 width="1280.000000pt" height="800.000000pt" viewBox="0 0 1280.000000 800.000000"
 preserveAspectRatio="xMidYMid meet">
<g transform="translate(0.000000,800.000000) scale(0.100000,-0.100000)"
fill="#000000" stroke="none">
<path d="M7262 5850 c-116 -24 -229 -122 -271 -234 -26 -69 -29 -189 -6 -243
8 -20 14 -37 12 -39 -29 -29 -85 -54 -120 -54 -53 0 -57 4 -92 69 -31 57 -95
118 -133 128 -13 3 -34 1 -47 -5 -21 -10 -32 -6 -84 29 -76 51 -144 75 -268
94 -138 22 -180 38 -264 101 -103 78 -144 97 -188 90 -20 -3 -62 -9 -93 -14
-31 -4 -66 -16 -77 -26 -11 -10 -35 -20 -53 -21 -78 -5 -157 -66 -253 -195
-77 -104 -124 -148 -221 -205 -107 -64 -123 -79 -106 -106 10 -15 9 -20 -7
-29 -11 -5 -30 -10 -43 -10 -36 -1 -131 -43 -186 -83 -27 -20 -52 -34 -55 -31
-3 3 -36 -9 -73 -26 -37 -18 -79 -36 -93 -39 -33 -9 -41 -47 -12 -56 12 -3 49
3 86 16 36 12 68 20 71 17 4 -4 -64 -51 -153 -105 -13 -7 -23 -20 -23 -29 0
-26 31 -28 79 -3 76 38 90 42 60 17 -59 -51 -75 -63 -104 -79 -20 -11 -30 -24
-30 -40 0 -39 34 -34 100 16 33 24 64 45 69 45 4 0 28 13 52 30 24 16 44 28
44 25 0 -7 -161 -165 -169 -165 -16 0 -53 -50 -48 -64 12 -29 46 -16 121 47
83 69 145 115 185 136 14 8 41 27 59 43 18 15 36 28 40 28 4 0 -1 -7 -11 -14
-22 -17 -67 -101 -67 -127 0 -33 31 -36 54 -5 12 15 38 46 59 69 46 50 87 126
87 162 0 14 -11 37 -24 49 l-23 24 24 11 c17 8 29 8 43 -1 32 -20 82 15 170
118 43 50 94 101 113 113 19 12 91 44 159 71 67 27 142 63 165 79 l42 30 92
-25 c125 -33 200 -75 263 -147 38 -43 159 -139 194 -153 1 0 -20 -37 -46 -81
-65 -107 -96 -191 -84 -223 7 -17 5 -36 -3 -60 -7 -19 -16 -43 -19 -52 -5 -17
-8 -16 -51 2 -54 23 -67 20 -150 -43 -65 -49 -90 -84 -82 -113 7 -23 -76 -89
-100 -79 -21 8 -93 -36 -133 -82 -44 -50 -84 -139 -84 -187 -1 -29 -8 -47 -31
-72 -17 -19 -41 -34 -52 -34 -78 0 -200 -166 -298 -405 -20 -49 -55 -126 -78
-169 -36 -69 -51 -87 -127 -147 -90 -71 -120 -114 -120 -173 0 -32 -3 -34 -47
-46 -127 -31 -219 -111 -353 -306 -85 -122 -89 -126 -231 -222 -63 -42 -123
-91 -134 -108 -15 -24 -33 -35 -76 -48 -76 -21 -119 -62 -119 -113 0 -61 18
-107 59 -154 51 -59 61 -80 82 -175 25 -117 42 -146 82 -143 18 1 49 -6 70
-15 46 -20 203 -37 234 -25 39 15 29 51 -31 116 -64 69 -86 135 -86 258 0 73
1 78 33 109 17 17 59 63 91 100 92 106 254 202 448 265 95 31 164 69 162 87
-1 5 -4 20 -7 34 -5 22 -2 28 25 38 26 10 35 9 48 -3 45 -41 103 11 160 143
61 139 85 169 226 283 69 56 146 127 171 158 55 67 113 183 113 226 l0 30 23
-27 c34 -42 97 -60 219 -63 59 -2 112 -6 118 -10 5 -3 10 -23 10 -44 0 -76
133 -210 288 -289 l96 -50 -45 -22 c-24 -13 -75 -43 -113 -67 -102 -67 -158
-89 -297 -117 -176 -36 -187 -41 -191 -79 -2 -26 -7 -31 -23 -28 -11 3 -54 5
-95 5 -85 1 -120 -15 -140 -65 -18 -43 0 -95 60 -170 66 -82 76 -121 56 -212
-20 -85 -20 -113 -2 -120 7 -3 16 -23 19 -45 5 -42 41 -101 100 -165 32 -34
37 -36 63 -27 44 17 54 30 54 69 0 52 -28 139 -48 152 -16 10 -16 17 5 122 12
62 25 140 29 175 7 65 13 73 35 46 19 -23 59 -11 154 47 45 27 105 57 131 65
91 27 249 45 435 48 253 4 296 18 424 143 60 59 67 159 15 226 -11 14 -20 36
-20 49 0 38 -56 96 -131 134 -77 38 -143 93 -165 135 -8 16 -26 61 -40 101
-52 146 -146 277 -250 349 -42 29 -42 29 -32 71 5 24 6 63 3 88 -6 43 -4 47
38 88 l43 43 120 2 c148 3 156 7 292 141 l103 101 40 -45 c54 -61 78 -109 95
-194 20 -92 46 -151 76 -167 12 -6 35 -27 51 -45 43 -51 80 -59 172 -34 43 12
87 26 98 32 41 22 108 93 144 152 57 94 91 134 141 163 81 46 133 93 130 117
-3 29 9 46 36 46 37 0 142 58 191 106 25 24 52 44 60 44 8 0 19 9 25 20 16 29
24 106 12 114 -6 3 -8 15 -5 26 3 11 -1 27 -8 36 -7 9 -14 23 -15 31 -5 30
-14 43 -30 43 -11 0 -15 6 -11 19 10 40 -65 80 -102 55 -12 -9 -21 -10 -23 -4
-3 10 -87 -15 -118 -35 -21 -14 -72 -91 -98 -147 -30 -65 -29 -112 3 -144 34
-34 23 -47 -30 -39 -39 5 -47 3 -80 -26 -20 -18 -54 -58 -75 -89 -52 -77 -83
-101 -179 -140 l-82 -33 -28 27 c-16 15 -41 50 -56 78 -24 44 -29 68 -35 162
-5 88 -12 120 -30 156 -23 44 -44 170 -28 170 4 0 56 45 116 100 95 88 115
112 172 212 l65 113 0 110 c0 101 -2 114 -28 162 -38 73 -89 120 -171 159 -79
37 -169 50 -244 34z m953 -876 c20 -15 19 -16 -17 -47 -87 -76 -133 -107 -136
-93 -2 7 8 31 22 51 15 21 26 44 26 51 0 8 6 14 14 14 8 0 24 9 37 20 29 23
29 23 54 4z"/>
</g>
</svg>
