<?xml version="1.0" ?><svg viewBox="0 0 64 64" xmlns="http://www.w3.org/2000/svg"><path d="M29.35 64c-2.555 0-3.582-.32-4.134-.563-.72-.316-1.232-.97-1.36-1.74-.37-2.195-.442-3.742-.214-4.6.476-1.797 2.328-2.767 3.83-2.767.05 0 .1 0 .15.003.018-.614.235-8.213.27-9.518-.737-1.29-3.043-4.917-4.06-6.305-2.56-.32-10.873-1.325-16.607-2.015-1.024-.123-1.846-.897-2.023-1.904-1.9-10.775-1.65-11.604-1.484-12.153.64-2.113 3.112-2.97 4.21-3.054.27-.03.5-.05.755-.05 1.162 0 3.265.454 4.306 3.494.318.932.652 2.05.954 3.06.124.414.27.902.4 1.326.8.083 1.886.184 2.953.27-1.416-.807-2.82-2.03-3.636-3.872-1.095-2.475-1.186-5.034-.255-7.205.674-1.574 2.228-3.724 5.8-5.03 1.088-.397 2.186-.6 3.264-.6 4.786 0 7.955 3.88 8.588 6.5.293 1.21.323 2.86.002 4.496 1.087-.73 2.254-1.556 2.876-2.052.045-.504.086-1.267.115-1.826.133-2.515.195-3.71.83-4.523-.884-.04-1.634-.26-2.236-.66-.995-.657-1.67-1.772-1.805-2.98-.136-1.202.258-2.352 1.108-3.237.66-.686 1.503-1.135 2.433-1.304.87-4.134 1.25-4.37 1.975-4.82.37-.23.875-.37 1.314-.37 1.367 0 5.315 2.25 5.315 4.427 0 .746-.073 1.545-.943 2.41-.44.437-1.03.69-1.667.717-.714 3.492-1.114 3.996-1.372 4.322-.038.047-.077.093-.117.138 1.212-.112 2.29-.118 2.52-.118 1.664 0 2.85.194 3.616 1.16.897 1.134.818 4.986.66 7.466.5-.28 1.06-.464 1.605-.575 0-.18-.002-.356-.003-.515-.028-3.813-.04-5.39 2.013-5.842.166-.036.375-.057.545-.057.076 0 8.34 1.348 9.704 3.603.95 1.573.293 10.464-.868 11.745-.752.83-2.056 1.09-2.92 1.168 1.71.743 2.27 2.538 2.534 3.377l.093.29c.017.05 1.564 5.134-.58 6.547-.287.19-.287.19-3.717 1.338-3.347 1.12-11.518 3.857-14.34 4.925-.227 1.747-.572 5.39-.817 7.972-.655 6.918-.68 6.965-.998 7.543-.325.587-1.08 1.96-8.582 1.96zm6.845-33.214c.532 1.03 1.5 2.903 2.21 4.25l.107-.038c9.54-3.542 13.228-4.78 14.888-5.137-1.15-.33-2.013-1.018-2.465-1.99-1.166.48-2.448.518-2.82.518-.983 0-1.83-.186-2.518-.553-.918-.49-1.556-1.34-1.8-2.397-.034-.15-.06-.304-.078-.46-.594.468-1.398 1.078-2.492 1.908-1.404 1.065-3.705 2.81-5.033 3.9zm-19.52 24.238c-1.443 0-2.786-.753-3.594-2.012-.832-1.3-.964-2.925-.344-4.24.26-.55.757-1.31 1.655-1.873-1.663-2.988-1.624-3.378-1.562-3.985.155-1.527 1.52-2.77 3.046-2.77.427 0 .852.1 1.23.287 1.187.59 5.683 8.023 4.956 10.188-.232.69-.675 1.238-1.258 1.596-.027.08-.056.164-.09.247-.295.736-.973 1.73-2.522 2.29-.497.18-1.007.27-1.514.27zm-8.54-37.146c-.424 0-.855-.045-1.282-.134-1.456-.304-2.62-1.098-3.278-2.237-.64-1.107-.75-2.44-.308-3.753.308-.917 1.274-2.456 4.29-2.456.067 0 .135 0 .202.002 1.938-5.356 2.65-5.71 3.34-6.053.325-.16.744-.257 1.108-.257 1.596 0 5.503 2.947 5.503 4.89 0 .052-.668 5.137-3.62 5.137-.097 0-.204-.006-.3-.018-.117-.015-.23-.037-.345-.067-.14.78-.3 1.438-.518 1.95-.775 1.82-2.656 2.995-4.793 2.995z" fill="#FFF"/><path d="M20.358 17.263c-.344.3-1.375 1.237-1.504 2.644-.13 1.407.516 2.516.73 2.772.216.255 1.076-.172.99-.64-.086-.47-.344-.3-.387-1.707-.043-1.407.99-2.43 1.032-2.687.04-.255-.668-.55-.862-.383zm-9.585-3.284c.473-1.11.73-4.48.86-4.52.13-.044 2.106 1.193 2.45 1.236.344.043 1.29-2.388 1.29-2.814 0-.426-2.823-2.758-3.225-2.56-.688.342-2.794 6.483-2.794 6.483s-3.396-.725-3.87.682c-.472 1.407.216 2.644 1.85 2.985 1.633.34 2.966-.384 3.44-1.493zm4.384 29.168c-.043.426 2.837 5.33 2.837 5.33-.903-.085-2.493-.085-3.138 1.28-.645 1.364.645 3.496 2.536 2.813 1.89-.68 1.075-2.302 1.075-2.302s1.118.384 1.376-.384-3.44-7.207-3.783-7.377c-.344-.17-.86.214-.903.64zM33.94 10.78c.775.513 2.752.257 3.225-.34.473-.597 1.418-6.013 1.418-6.013s1.547 1.023 1.805.768.258-.34.258-.768c0-.426-2.708-2.303-3.052-2.09-.344.213-1.333 5.373-1.333 5.373-.47-.34-1.76-.51-2.62.385-.86.895-.473 2.174.3 2.686zM54.4 32.06c-1.203-.17-16.935 5.842-17.064 5.842-.13 0-3.74-7.08-3.997-7.548-.26-.47 9.8-7.676 9.842-7.974.043-.298.473-7.292 0-7.89-.473-.596-5.975-.084-6.405.257-.43.34-.344 5.544-.688 6.14-.345.598-6.105 4.52-6.62 4.52-.517 0-2.666-.425-2.666-.425 1.89-1.365 2.493-5.032 1.977-7.164-.515-2.132-3.867-6.055-8.768-4.264s-5.76 5.63-4.212 9.126c1.547 3.497 6.276 4.01 6.276 4.01 0 .34-.602 2.984-.99 3.24-.386.256-8.166-.47-8.424-.597-.258-.128-1.118-3.497-1.89-5.757s-2.107-1.92-2.666-1.876c-.56.043-1.89.554-2.15 1.407-.257.853 1.548 11.087 1.548 11.087S24.527 36.24 25 36.324c.473.086 5.244 7.677 5.244 7.975 0 .298-.344 12.11-.344 12.238 0 .128-1.89.213-2.278.128-.387-.085-1.504.213-1.72 1.023-.214.81.26 3.624.26 3.624 1.847.81 9.455.085 9.713-.384.258-.47 1.418-15.565 1.805-16.034.387-.47 18.698-6.482 18.827-6.567.13-.086-.043-2.986-.344-3.882-.3-.895-.558-2.217-1.762-2.388zM20.36 15.643c2.475-1.217 4.427-.554 5.674 1.748 1.247 2.304 1.633 6.952-3.568 7.25s-7.22-6.48-2.106-8.997zm34.13 21.236c-.13.425-18.7 6.524-19.215 7.376-.516.853-.688 15.31-1.204 15.522-.517.213-6.363.725-6.45.34-.085-.383-.3-1.747-.042-1.747s4.255-.596 4.255-.767c0-.17.3-13.944.258-14.414-.042-.47-5.415-8.317-5.845-8.615-.43-.3-16.764-1.535-17.065-1.876-.3-.342-1.72-8.23-.817-8.615.48-.204 1.118 2.9 1.934 4.947.817 2.047.946 2.175 1.676 2.388.73.213 8.253.085 9.413.085s1.934-.597 2.106-.853.516-2.6 1.247-2.942c.73-.34 3.094-1.194 3.395-1.023.3.17 1.118 1.194 1.418 1.066.3-.128 8.51-5.714 8.64-6.14.13-.427-.387-5.203.215-5.545.602-.34 2.58-.34 2.708-.043.13.3.3 5.117.086 5.416-.215.3-10.445 7.592-10.445 8.146 0 .554 4.9 11.045 6.06 10.917 1.162-.128 16.937-6.61 17.108-6.525.175.087.69 2.475.562 2.9zm3.05-18.55c-.515-.854-7.35-2.56-7.736-2.474-.387.085.002 6.477-.3 6.397-1.29-.34-2.71.128-3.053.597-.345.47-.86 2.345.257 2.942 1.118.597 3.654.128 3.955-.512.3-.64.13-5.245.13-5.245s4.813 1.748 4.985 2.004c.172.255 0 1.875 0 1.875s-.602-.426-1.676-.213c-1.074.213-1.546 1.407-1.117 2.985.43 1.578 3.568 1.066 3.954.64.387-.427 1.118-8.145.602-8.998zm-1.504 2.558c-.387-.213-5.115-2.004-5.2-2.175-.087-.17-.087-1.194.17-1.28.21-.068 5.073 1.45 5.116 1.75.043.297.3 1.918-.086 1.705zm-29.744 9.51c-.56-.214-1.032.383-1.032.596s.99 1.79 1.46 2.132c.474.34.603-.3.603-.554s-.596-2.01-1.03-2.175z"/></svg>