<?xml version="1.0" ?><svg viewBox="0 0 32 32" xmlns="http://www.w3.org/2000/svg"><defs><style>.cls-1{fill:none;stroke:#000;stroke-linecap:round;stroke-linejoin:round;stroke-width:2px;}</style></defs><title/><g data-name="Layer 16" id="Layer_16"><path class="cls-1" d="M20.51,14.2a16.27,16.27,0,0,0-9,0,28.23,28.23,0,0,0-5-5.58,23.26,23.26,0,0,1,19.12,0A28.23,28.23,0,0,0,20.51,14.2Z"/><path d="M22,2H10a8,8,0,0,0-8,8V27a3,3,0,0,0,3,3H27a3,3,0,0,0,3-3V10A8,8,0,0,0,22,2Zm6,25a1,1,0,0,1-1,1H5a1,1,0,0,1-1-1V10a6,6,0,0,1,6-6H22a6,6,0,0,1,6,6Z"/><path d="M9.71,7.29A1,1,0,1,0,8.29,8.71l1,1a1,1,0,0,0,1.42,0,1,1,0,0,0,0-1.42Z"/><path d="M16,9a1,1,0,0,0,1-1V7a1,1,0,0,0-2,0V8A1,1,0,0,0,16,9Z"/><path d="M22.29,7.29l-1,1a1,1,0,0,0,0,1.42,1,1,0,0,0,1.42,0l1-1a1,1,0,1,0-1.42-1.42Z"/><path d="M18.2,8.4l-3,4a1,1,0,0,0,.2,1.4,1,1,0,0,0,.6.2,1,1,0,0,0,.8-.4l3-4a1,1,0,1,0-1.6-1.2Z"/></g></svg>