<?xml version="1.0" ?><svg enable-background="new 0 0 24 24" id="Layer_1" version="1.1" viewBox="0 0 24 24" xml:space="preserve" xmlns="http://www.w3.org/2000/svg" xmlns:xlink="http://www.w3.org/1999/xlink"><g><path d="M24,2.953125C24,1.324707,22.6621094,0,21.0175781,0c-0.4775391,0-0.9423828,0.1118164-1.3623047,0.3261719   C19.3144531,0.1118164,18.9335938,0,18.5351563,0c-1.1884766,0-2.1552734,0.9580078-2.1552734,2.1352539   c0,0.8989258,0.5751953,1.6743164,1.4033203,1.9770508c-0.0158691,0.069397-0.038147,0.1290894-0.0552979,0.1965942   C15.8065186,2.8203735,13.4468384,2,11,2C4.9345703,2,0,6.9345703,0,13s4.9345703,11,11,11s11-4.9345703,11-11   c0-2.3720093-0.7800903-4.6799927-2.1906128-6.5712891c0.0479126-0.0197754,0.0947266-0.0424194,0.1427612-0.0615234   c0.3535156,0.7124023,1.0703125,1.1748047,1.8925781,1.1748047C23.0332031,7.5419922,24,6.5839844,24,5.40625   c0-0.387207-0.1142578-0.7700195-0.328125-1.1064453C23.8876953,3.8852539,24,3.4262695,24,2.953125z" fill="#303C42"/><path d="M21,13c0,5.5141602-4.4863281,10-10,10S1,18.5141602,1,13S5.4863281,3,11,3   c2.3428345,0,4.5977173,0.8269043,6.3913574,2.3203125c-0.2348022,0.5579224-0.5201416,1.0274658-0.8630371,1.3662109   c-0.3701172,0.3657227-0.7197266,0.7114258-0.4257813,1.1054688c0.1113281,0.1503906,0.2265625,0.2172852,0.3740234,0.2172852   c0.2382813,0,0.5595703-0.1762695,1.0839844-0.4643555c0.3616333-0.1986084,0.8207397-0.4472656,1.31604-0.6915894   C20.2438354,8.6033936,21,10.7709351,21,13z" fill="#EF4438"/><path d="M18.8765869,6.8533325c-0.0861816,0.0424805-0.1627808,0.0838013-0.2463989,0.1262817   C19.5143433,8.4958496,20,10.2265625,20,12c0,5.5141602-4.4863281,10-10,10c-2.5027466,0-4.7879028-0.9307861-6.5438232-2.4559937   C5.2910767,21.656311,7.9890747,23,11,23c5.5136719,0,10-4.4858398,10-10C21,10.7709351,20.2438354,8.6033936,18.8765869,6.8533325   z" fill="#010101" opacity="0.1"/><path d="M8.5,10c-1.1679688,0-2.2822266-0.371582-2.5087891-0.5927734C5.9482422,9.175293,5.7441406,9,5.5,9   C5.2236328,9,5,9.2236328,5,9.5C5,10.6220703,7.4033203,11,8.5,11C8.7763672,11,9,10.7763672,9,10.5S8.7763672,10,8.5,10z" fill="#303C42"/><path d="M16.5,9c-0.2441406,0-0.4482422,0.175293-0.4912109,0.4072266C15.7822266,9.628418,14.6679688,10,13.5,10   c-0.2763672,0-0.5,0.2236328-0.5,0.5s0.2236328,0.5,0.5,0.5c1.0966797,0,3.5-0.3779297,3.5-1.5C17,9.2236328,16.7763672,9,16.5,9z" fill="#303C42"/><circle cx="7" cy="12" fill="#303C42" r="1"/><circle cx="15" cy="12" fill="#303C42" r="1"/><path d="M12.5,18h-3C9.2236328,18,9,18.2236328,9,18.5S9.2236328,19,9.5,19h3c0.2763672,0,0.5-0.2236328,0.5-0.5   S12.7763672,18,12.5,18z" fill="#303C42"/><path d="M22.6982422,4.6655273C22.8359375,4.8183594,23,5.0708008,23,5.40625   c0,0.6264648-0.5185547,1.1357422-1.1552734,1.1357422c-0.5361328,0-0.9892578-0.378418-1.0996094-0.9204102   c-0.0292969-0.140625-0.1171875-0.2617188-0.2412109-0.3330078c-0.0771484-0.0439453-0.1630859-0.0664063-0.2490234-0.0664063   c-0.0537109,0-0.1083984,0.0087891-0.1611328,0.0263672c-0.6728516,0.2290039-1.3476563,0.5424805-1.9414063,0.8457031   c0.3164063-0.637207,0.5537109-1.3955078,0.7080078-2.2695313c0.0244141-0.1362305-0.0097656-0.2768555-0.0927734-0.3876953   c-0.0839844-0.1108398-0.2089844-0.1821289-0.3476563-0.1962891c-0.5927734-0.0620117-1.0400391-0.5371094-1.0400391-1.1054688   C17.3798828,1.5092773,17.8984375,1,18.5351563,1c0.34375,0,0.6025391,0.1630859,0.7578125,0.300293   c0.1708984,0.1494141,0.4208984,0.1660156,0.609375,0.0385742C20.2314453,1.1171875,20.6171875,1,21.0175781,1   C22.1103516,1,23,1.8759766,23,2.953125c0,0.3930664-0.1181641,0.7709961-0.3408203,1.09375   C22.5273438,4.2373047,22.5439453,4.4931641,22.6982422,4.6655273z" fill="#F3F3F3"/><path d="M22.0470581,5.8396606c-0.5361328,0-0.9892578-0.378418-1.0996094-0.9204102   c-0.0292969-0.140625-0.1171875-0.2617188-0.2412109-0.3330078c-0.0771484-0.0439453-0.1630859-0.0664063-0.2490234-0.0664063   c-0.0537109,0-0.1083984,0.0087891-0.1611328,0.0263672c-0.6392212,0.2175293-1.2757568,0.5118408-1.8473511,0.8006592   c-0.0926514,0.2583618-0.1833496,0.5197144-0.2963867,0.7473755c0.59375-0.3032227,1.2685547-0.6166992,1.9414063-0.8457031   c0.0527344-0.0175781,0.1074219-0.0263672,0.1611328-0.0263672c0.0859375,0,0.171875,0.0224609,0.2490234,0.0664063   c0.1240234,0.0712891,0.2119141,0.1923828,0.2412109,0.3330078c0.1103516,0.5419922,0.5634766,0.9204102,1.0996094,0.9204102   C22.4814453,6.5419922,23,6.0327148,23,5.40625c0-0.0298462-0.0074463-0.0554199-0.0098877-0.0839844   C22.7825928,5.6266479,22.4467163,5.8396606,22.0470581,5.8396606z" fill="#010101" opacity="0.1"/><linearGradient gradientUnits="userSpaceOnUse" id="SVGID_1_" x1="2.1506479" x2="22.0883713" y1="5.9506488" y2="15.2477617"><stop offset="0" style="stop-color:#FFFFFF;stop-opacity:0.2"/><stop offset="1" style="stop-color:#FFFFFF;stop-opacity:0"/></linearGradient><path d="M24,2.953125C24,1.324707,22.6621094,0,21.0175781,0   c-0.4775391,0-0.9423828,0.1118164-1.3623047,0.3261719C19.3144531,0.1118164,18.9335938,0,18.5351563,0   c-1.1884766,0-2.1552734,0.9580078-2.1552734,2.1352539c0,0.8989258,0.5751953,1.6743164,1.4033203,1.9770508   c-0.0158691,0.069397-0.038147,0.1290894-0.0552979,0.1965942C15.8065186,2.8203735,13.4468384,2,11,2   C4.9345703,2,0,6.9345703,0,13s4.9345703,11,11,11s11-4.9345703,11-11c0-2.3720093-0.7800903-4.6799927-2.1906128-6.5712891   c0.0479126-0.0197754,0.0947266-0.0424194,0.1427612-0.0615234c0.3535156,0.7124023,1.0703125,1.1748047,1.8925781,1.1748047   C23.0332031,7.5419922,24,6.5839844,24,5.40625c0-0.387207-0.1142578-0.7700195-0.328125-1.1064453   C23.8876953,3.8852539,24,3.4262695,24,2.953125z" fill="url(#SVGID_1_)"/></g><g/><g/><g/><g/><g/><g/><g/><g/><g/><g/><g/><g/><g/><g/><g/></svg>