<?xml version="1.0" ?><!DOCTYPE svg  PUBLIC '-//W3C//DTD SVG 1.1//EN'  'http://www.w3.org/Graphics/SVG/1.1/DTD/svg11.dtd'><svg height="96" version="1.1" viewBox="0 0 96 96" width="96" xmlns="http://www.w3.org/2000/svg" xmlns:xlink="http://www.w3.org/1999/xlink"><path d="M19.368 18.268c-5.192 4.068-6.572 8.868-6.76 12.32l19.456 25.004 4.632-13.24-17-23.384c-0.164-0.208-0.268-0.456-0.328-0.7z" fill="#000000"/><path d="M22.928 16.62l17.016 23.408h17.008l-0.060-0.328c-0.060-0.328-0.192-0.636-0.396-0.9l-20.096-25.852c-3.42-0.32-8.416 0.048-13.956 3.236 0.18 0.124 0.352 0.256 0.484 0.436z" fill="#000000"/><path d="M5.348 21.252l3.952 5.084c1.032-3.992 3.5-8.52 8.996-12.272 5.52-3.76 10.752-5 14.94-5.18l-4.736-6.084c-0.148-0.192-0.328-0.352-0.532-0.48-0.252-0.152-2.572-1.508-6.22-1.508-3.316 0-6.616 1.104-9.804 3.276-8.86 6.056-7.064 15.904-6.984 16.32 0.064 0.304 0.196 0.596 0.388 0.844z" fill="#000000"/><path d="M58.928 66.024c0.024 0 0.056 0 0.080 0 1.1 0 2-0.9 2-2 0-0.304-0.072-0.6-0.196-0.868l-3.188-19.132h-17.276l-4.984 14.248 22.932 7.648c0.208 0.072 0.42 0.104 0.632 0.104z" fill="#000000"/><path d="M82.736 34.368c0.328-5.592-1.244-10.436-4.416-13.656-6.96-7.040-19.964-6.848-30.976-0.212l2.488 3.196c9.352-5.5 20.036-5.852 25.648-0.172 2.364 2.4 3.524 6.164 3.256 10.6-0.492 8.468-5.772 17.944-14.344 26.164l0.296 1.804c0.212 0.616 0.32 1.272 0.32 1.92 0 0.416-0.048 0.812-0.12 1.204 10.604-9.332 17.244-20.66 17.848-30.848z" fill="#000000"/><path d="M86.152 8.68c-8.948-7.728-30.692-5.752-45.252 3.532l0.256 0.332 2.204 2.832c13.92-8.804 33.244-9.648 40.176-3.672 4.388 3.788 7.192 11.16 7.504 19.728 0.484 13.084-4.58 26.232-13.528 35.176-33.14 33.14-54.020 24.868-61.456 19.764-3.544-2.428-4.656-6.916-4.964-10.244-0.832-9.008 3.008-21.080 8.928-29.504l-2.58-3.308c-6.9 9.248-11.292 22.812-10.332 33.184 0.556 6 2.864 10.556 6.684 13.172 3.532 2.42 9.752 5.516 18.484 5.516 11.692 0 27.872-5.564 48.064-25.752 9.732-9.728 15.224-23.988 14.7-38.156-0.364-9.8-3.604-18.036-8.888-22.6z" fill="#000000"/><path d="M12.044 36.376c-10.108 12.752-11.076 26.872-11.112 27.536-0.064 1.092 0.776 2.040 1.88 2.1 0.040 0 0.080 0.008 0.12 0.008 1.048 0 1.928-0.82 1.996-1.884 0.008-0.148 0.888-12.92 9.648-24.516l-2.532-3.244z" fill="#000000"/></svg>