<?xml version="1.0" ?><svg viewBox="0 0 32 32" xmlns="http://www.w3.org/2000/svg"><title/><g data-name="Layer 20" id="Layer_20"><path d="M28.86,17A8.13,8.13,0,0,0,21.61,5.15,8.06,8.06,0,0,0,16,7.39,8.14,8.14,0,0,0,4.63,19.05l.43.4a1.83,1.83,0,0,0,.13.16l10.1,10.1a1,1,0,0,0,1.42,0l4.92-4.93A5.36,5.36,0,0,0,28.86,17ZM16,27.59,6.83,18.42a.91.91,0,0,0-.28-.34,5.35,5.35,0,0,1-.5-.45A6.14,6.14,0,0,1,14.73,9a5.43,5.43,0,0,1,.46.51l.1.12a1,1,0,0,0,1.45,0l.07-.09A5.43,5.43,0,0,1,17.27,9a6.14,6.14,0,0,1,10,6.71,5.89,5.89,0,0,0-.63-.29l-.07,0a6.77,6.77,0,0,0-.77-.22l-.22,0a5.14,5.14,0,0,0-.88-.08,5.38,5.38,0,0,0-5.38,5.38,5.87,5.87,0,0,0,.09.94l.06.27c.05.22.12.44.19.65l.11.27a6,6,0,0,0,.37.71,1.05,1.05,0,0,0,.07.11v0Zm8.71-3.84a3.38,3.38,0,0,1-3.38-3.37,3.38,3.38,0,1,1,3.38,3.37Z"/><path d="M25.54,18.54,24,20.21l-.28-.41A1,1,0,0,0,22.08,21l1,1.43a1,1,0,0,0,.76.43h.07a1,1,0,0,0,.73-.32L27,19.89A1,1,0,0,0,27,18.48,1,1,0,0,0,25.54,18.54Z"/></g></svg>